<mxfile host="app.diagrams.net" modified="2022-01-03T13:36:31.897Z" agent="5.0 (Windows)" etag="vaerMwDV-5yFd0orXIa-" version="16.1.2" type="github">
  <diagram id="YGNTWtgdEyncMabGo3KJ" name="Page-1">
    <mxGraphModel dx="1741" dy="493" grid="1" gridSize="10" guides="1" tooltips="1" connect="1" arrows="1" fold="1" page="1" pageScale="1" pageWidth="827" pageHeight="1169" math="0" shadow="0">
      <root>
        <mxCell id="0" />
        <mxCell id="1" parent="0" />
        <mxCell id="9zewsrHCKkYJ4nH5Iu_M-1" value="Начало" style="ellipse;whiteSpace=wrap;html=1;fontFamily=Times New Roman;" vertex="1" parent="1">
          <mxGeometry x="-690" y="40" width="120" height="40" as="geometry" />
        </mxCell>
        <mxCell id="9zewsrHCKkYJ4nH5Iu_M-2" value="Введите желаемое количество элементов в массиве и нажмите ENTER:" style="shape=parallelogram;perimeter=parallelogramPerimeter;fixedSize=1;fontFamily=Times New Roman;fontColor=#000000;whiteSpace=wrap;direction=west;" vertex="1" parent="1">
          <mxGeometry x="-785" y="110" width="310" height="30" as="geometry" />
        </mxCell>
        <mxCell id="9zewsrHCKkYJ4nH5Iu_M-4" value="" style="endArrow=classic;html=1;rounded=0;fontFamily=Times New Roman;fontColor=#000000;exitX=0.5;exitY=1;exitDx=0;exitDy=0;spacing=0;" edge="1" parent="1" target="9zewsrHCKkYJ4nH5Iu_M-2">
          <mxGeometry width="50" height="50" relative="1" as="geometry">
            <mxPoint x="-631" y="80" as="sourcePoint" />
            <mxPoint x="-626" y="110" as="targetPoint" />
          </mxGeometry>
        </mxCell>
        <mxCell id="9zewsrHCKkYJ4nH5Iu_M-6" value="а" style="shape=parallelogram;perimeter=parallelogramPerimeter;whiteSpace=wrap;html=1;fixedSize=1;fontFamily=Times New Roman;fontColor=#000000;" vertex="1" parent="1">
          <mxGeometry x="-685" y="160" width="110" height="20" as="geometry" />
        </mxCell>
        <mxCell id="9zewsrHCKkYJ4nH5Iu_M-7" value="" style="endArrow=classic;html=1;rounded=0;fontFamily=Times New Roman;fontColor=#000000;exitX=0.5;exitY=0;exitDx=0;exitDy=0;entryX=0.5;entryY=0;entryDx=0;entryDy=0;" edge="1" parent="1" source="9zewsrHCKkYJ4nH5Iu_M-2" target="9zewsrHCKkYJ4nH5Iu_M-6">
          <mxGeometry width="50" height="50" relative="1" as="geometry">
            <mxPoint x="-370" y="200" as="sourcePoint" />
            <mxPoint x="-320" y="150" as="targetPoint" />
          </mxGeometry>
        </mxCell>
        <mxCell id="9zewsrHCKkYJ4nH5Iu_M-10" value="" style="endArrow=classic;html=1;rounded=0;fontFamily=Times New Roman;fontColor=#000000;exitX=0.5;exitY=1;exitDx=0;exitDy=0;entryX=0.5;entryY=1;entryDx=0;entryDy=0;" edge="1" parent="1" source="9zewsrHCKkYJ4nH5Iu_M-6">
          <mxGeometry width="50" height="50" relative="1" as="geometry">
            <mxPoint x="-370" y="200" as="sourcePoint" />
            <mxPoint x="-630" y="200" as="targetPoint" />
          </mxGeometry>
        </mxCell>
        <mxCell id="9zewsrHCKkYJ4nH5Iu_M-12" value="Заполните введённое количество элементов массива через ENTER:" style="shape=parallelogram;perimeter=parallelogramPerimeter;whiteSpace=wrap;fixedSize=1;fontFamily=Times New Roman;fontColor=#000000;fontStyle=0" vertex="1" parent="1">
          <mxGeometry x="-770" y="200" width="290" height="40" as="geometry" />
        </mxCell>
        <mxCell id="9zewsrHCKkYJ4nH5Iu_M-14" value="i = 1 to a" style="shape=hexagon;perimeter=hexagonPerimeter2;whiteSpace=wrap;fixedSize=1;fontFamily=Times New Roman;fontColor=#000000;" vertex="1" parent="1">
          <mxGeometry x="-690" y="260" width="120" height="40" as="geometry" />
        </mxCell>
        <mxCell id="9zewsrHCKkYJ4nH5Iu_M-15" value="" style="endArrow=classic;html=1;rounded=0;fontFamily=Times New Roman;fontColor=#000000;entryX=0.5;entryY=0;entryDx=0;entryDy=0;" edge="1" parent="1" target="9zewsrHCKkYJ4nH5Iu_M-14">
          <mxGeometry width="50" height="50" relative="1" as="geometry">
            <mxPoint x="-630" y="240" as="sourcePoint" />
            <mxPoint x="-560" y="270" as="targetPoint" />
          </mxGeometry>
        </mxCell>
        <mxCell id="9zewsrHCKkYJ4nH5Iu_M-17" value="Mass1[i]" style="shape=parallelogram;perimeter=parallelogramPerimeter;whiteSpace=wrap;html=1;fixedSize=1;fontFamily=Times New Roman;fontColor=#000000;" vertex="1" parent="1">
          <mxGeometry x="-690" y="320" width="120" height="30" as="geometry" />
        </mxCell>
        <mxCell id="9zewsrHCKkYJ4nH5Iu_M-19" value="" style="endArrow=classic;html=1;rounded=0;fontFamily=Times New Roman;fontColor=#000000;exitX=0.5;exitY=1;exitDx=0;exitDy=0;entryX=0.5;entryY=0;entryDx=0;entryDy=0;" edge="1" parent="1" source="9zewsrHCKkYJ4nH5Iu_M-14" target="9zewsrHCKkYJ4nH5Iu_M-17">
          <mxGeometry width="50" height="50" relative="1" as="geometry">
            <mxPoint x="-610" y="320" as="sourcePoint" />
            <mxPoint x="-560" y="270" as="targetPoint" />
          </mxGeometry>
        </mxCell>
        <mxCell id="9zewsrHCKkYJ4nH5Iu_M-20" value="Mass1[i] % 2 = 0" style="rhombus;whiteSpace=wrap;html=1;fontFamily=Times New Roman;fontColor=#000000;" vertex="1" parent="1">
          <mxGeometry x="-720" y="380" width="180" height="50" as="geometry" />
        </mxCell>
        <mxCell id="9zewsrHCKkYJ4nH5Iu_M-21" value="" style="endArrow=classic;html=1;rounded=0;fontFamily=Times New Roman;fontColor=#000000;exitX=0.5;exitY=1;exitDx=0;exitDy=0;entryX=0.5;entryY=0;entryDx=0;entryDy=0;" edge="1" parent="1" source="9zewsrHCKkYJ4nH5Iu_M-17" target="9zewsrHCKkYJ4nH5Iu_M-20">
          <mxGeometry width="50" height="50" relative="1" as="geometry">
            <mxPoint x="-610" y="320" as="sourcePoint" />
            <mxPoint x="-560" y="270" as="targetPoint" />
          </mxGeometry>
        </mxCell>
        <mxCell id="9zewsrHCKkYJ4nH5Iu_M-22" value="+" style="text;html=1;resizable=0;autosize=1;align=center;verticalAlign=middle;points=[];fillColor=none;strokeColor=none;rounded=0;fontFamily=Times New Roman;fontColor=#000000;" vertex="1" parent="1">
          <mxGeometry x="-550" y="380" width="20" height="20" as="geometry" />
        </mxCell>
        <mxCell id="9zewsrHCKkYJ4nH5Iu_M-23" value="-" style="text;html=1;resizable=0;autosize=1;align=center;verticalAlign=middle;points=[];fillColor=none;strokeColor=none;rounded=0;fontFamily=Times New Roman;fontColor=#000000;" vertex="1" parent="1">
          <mxGeometry x="-725" y="960" width="20" height="20" as="geometry" />
        </mxCell>
        <mxCell id="9zewsrHCKkYJ4nH5Iu_M-24" value="" style="endArrow=classic;html=1;rounded=0;fontFamily=Times New Roman;fontColor=#000000;exitX=1;exitY=0.5;exitDx=0;exitDy=0;" edge="1" parent="1" source="9zewsrHCKkYJ4nH5Iu_M-20" target="9zewsrHCKkYJ4nH5Iu_M-25">
          <mxGeometry width="50" height="50" relative="1" as="geometry">
            <mxPoint x="-600" y="420" as="sourcePoint" />
            <mxPoint x="-470" y="440" as="targetPoint" />
            <Array as="points">
              <mxPoint x="-470" y="405" />
            </Array>
          </mxGeometry>
        </mxCell>
        <mxCell id="9zewsrHCKkYJ4nH5Iu_M-25" value="count ++" style="rounded=0;whiteSpace=wrap;html=1;fontFamily=Times New Roman;fontColor=#000000;" vertex="1" parent="1">
          <mxGeometry x="-530" y="430" width="120" height="40" as="geometry" />
        </mxCell>
        <mxCell id="9zewsrHCKkYJ4nH5Iu_M-26" value="" style="endArrow=classic;html=1;rounded=0;fontFamily=Times New Roman;fontColor=#000000;exitX=0;exitY=0.5;exitDx=0;exitDy=0;entryX=0;entryY=0.5;entryDx=0;entryDy=0;" edge="1" parent="1" source="9zewsrHCKkYJ4nH5Iu_M-20" target="9zewsrHCKkYJ4nH5Iu_M-14">
          <mxGeometry width="50" height="50" relative="1" as="geometry">
            <mxPoint x="-600" y="400" as="sourcePoint" />
            <mxPoint x="-550" y="350" as="targetPoint" />
            <Array as="points">
              <mxPoint x="-790" y="405" />
              <mxPoint x="-790" y="280" />
            </Array>
          </mxGeometry>
        </mxCell>
        <mxCell id="9zewsrHCKkYJ4nH5Iu_M-27" value="" style="endArrow=classic;html=1;rounded=0;fontFamily=Times New Roman;fontColor=#000000;exitX=0.5;exitY=1;exitDx=0;exitDy=0;" edge="1" parent="1" source="9zewsrHCKkYJ4nH5Iu_M-25">
          <mxGeometry width="50" height="50" relative="1" as="geometry">
            <mxPoint x="-600" y="370" as="sourcePoint" />
            <mxPoint x="-790" y="410" as="targetPoint" />
            <Array as="points">
              <mxPoint x="-470" y="510" />
              <mxPoint x="-790" y="510" />
            </Array>
          </mxGeometry>
        </mxCell>
        <mxCell id="9zewsrHCKkYJ4nH5Iu_M-28" value="" style="endArrow=classic;html=1;rounded=0;fontFamily=Times New Roman;fontColor=#000000;exitX=1;exitY=0.5;exitDx=0;exitDy=0;" edge="1" parent="1" source="9zewsrHCKkYJ4nH5Iu_M-14">
          <mxGeometry width="50" height="50" relative="1" as="geometry">
            <mxPoint x="-460" y="400" as="sourcePoint" />
            <mxPoint x="-630" y="560" as="targetPoint" />
            <Array as="points">
              <mxPoint x="-390" y="280" />
              <mxPoint x="-390" y="540" />
              <mxPoint x="-630" y="540" />
            </Array>
          </mxGeometry>
        </mxCell>
        <mxCell id="9zewsrHCKkYJ4nH5Iu_M-29" value="int[] Mass2 = new int[count]" style="rounded=0;whiteSpace=wrap;fontFamily=Times New Roman;fontColor=#000000;" vertex="1" parent="1">
          <mxGeometry x="-705" y="560" width="150" height="40" as="geometry" />
        </mxCell>
        <mxCell id="9zewsrHCKkYJ4nH5Iu_M-30" value="NewArr(Mass2)" style="rounded=0;whiteSpace=wrap;fontFamily=Times New Roman;fillColor=#d5e8d4;strokeColor=#82b366;" vertex="1" parent="1">
          <mxGeometry x="-690" y="620" width="120" height="30" as="geometry" />
        </mxCell>
        <mxCell id="9zewsrHCKkYJ4nH5Iu_M-31" value="" style="endArrow=classic;html=1;rounded=0;fontFamily=Times New Roman;fontColor=#000000;exitX=0.5;exitY=1;exitDx=0;exitDy=0;entryX=0.5;entryY=0;entryDx=0;entryDy=0;" edge="1" parent="1" source="9zewsrHCKkYJ4nH5Iu_M-29" target="9zewsrHCKkYJ4nH5Iu_M-30">
          <mxGeometry width="50" height="50" relative="1" as="geometry">
            <mxPoint x="-530" y="540" as="sourcePoint" />
            <mxPoint x="-480" y="490" as="targetPoint" />
          </mxGeometry>
        </mxCell>
        <mxCell id="9zewsrHCKkYJ4nH5Iu_M-32" value="Clear(Mass1);&#xa;Clear(Mass2);" style="rounded=0;whiteSpace=wrap;fontFamily=Times New Roman;fillColor=#e1d5e7;strokeColor=#9673a6;" vertex="1" parent="1">
          <mxGeometry x="-690" y="670" width="120" height="40" as="geometry" />
        </mxCell>
        <mxCell id="9zewsrHCKkYJ4nH5Iu_M-33" value="" style="endArrow=classic;html=1;rounded=0;fontFamily=Times New Roman;fontColor=#000000;exitX=0.5;exitY=1;exitDx=0;exitDy=0;entryX=0.5;entryY=0;entryDx=0;entryDy=0;" edge="1" parent="1" source="9zewsrHCKkYJ4nH5Iu_M-30" target="9zewsrHCKkYJ4nH5Iu_M-32">
          <mxGeometry width="50" height="50" relative="1" as="geometry">
            <mxPoint x="-530" y="720" as="sourcePoint" />
            <mxPoint x="-480" y="670" as="targetPoint" />
          </mxGeometry>
        </mxCell>
        <mxCell id="9zewsrHCKkYJ4nH5Iu_M-34" value="Эта программа также может заполнять исходный массив рандомными числами типа int, например:" style="shape=parallelogram;perimeter=parallelogramPerimeter;whiteSpace=wrap;fixedSize=1;fontFamily=Times New Roman;fontColor=#000000;" vertex="1" parent="1">
          <mxGeometry x="-780" y="740" width="300" height="50" as="geometry" />
        </mxCell>
        <mxCell id="9zewsrHCKkYJ4nH5Iu_M-35" value="" style="endArrow=classic;html=1;rounded=0;fontFamily=Times New Roman;fontColor=#000000;exitX=0.5;exitY=1;exitDx=0;exitDy=0;entryX=0.5;entryY=0;entryDx=0;entryDy=0;" edge="1" parent="1" source="9zewsrHCKkYJ4nH5Iu_M-32" target="9zewsrHCKkYJ4nH5Iu_M-34">
          <mxGeometry width="50" height="50" relative="1" as="geometry">
            <mxPoint x="-530" y="670" as="sourcePoint" />
            <mxPoint x="-480" y="620" as="targetPoint" />
          </mxGeometry>
        </mxCell>
        <mxCell id="9zewsrHCKkYJ4nH5Iu_M-36" value="i = 1 to a" style="shape=hexagon;perimeter=hexagonPerimeter2;whiteSpace=wrap;html=1;fixedSize=1;fontFamily=Times New Roman;fontColor=#000000;" vertex="1" parent="1">
          <mxGeometry x="-690" y="810" width="120" height="40" as="geometry" />
        </mxCell>
        <mxCell id="9zewsrHCKkYJ4nH5Iu_M-37" value="" style="endArrow=classic;html=1;rounded=0;fontFamily=Times New Roman;fontColor=#000000;exitX=0.5;exitY=1;exitDx=0;exitDy=0;entryX=0.5;entryY=0;entryDx=0;entryDy=0;" edge="1" parent="1" source="9zewsrHCKkYJ4nH5Iu_M-34" target="9zewsrHCKkYJ4nH5Iu_M-36">
          <mxGeometry width="50" height="50" relative="1" as="geometry">
            <mxPoint x="-530" y="770" as="sourcePoint" />
            <mxPoint x="-480" y="720" as="targetPoint" />
          </mxGeometry>
        </mxCell>
        <mxCell id="9zewsrHCKkYJ4nH5Iu_M-38" value="Mass1[i] = random (integer)" style="rounded=0;whiteSpace=wrap;html=1;fontFamily=Times New Roman;fontColor=#000000;" vertex="1" parent="1">
          <mxGeometry x="-690" y="870" width="120" height="30" as="geometry" />
        </mxCell>
        <mxCell id="9zewsrHCKkYJ4nH5Iu_M-39" value="" style="endArrow=classic;html=1;rounded=0;fontFamily=Times New Roman;fontColor=#000000;exitX=0.5;exitY=1;exitDx=0;exitDy=0;entryX=0.5;entryY=0;entryDx=0;entryDy=0;" edge="1" parent="1" source="9zewsrHCKkYJ4nH5Iu_M-36" target="9zewsrHCKkYJ4nH5Iu_M-38">
          <mxGeometry width="50" height="50" relative="1" as="geometry">
            <mxPoint x="-530" y="930" as="sourcePoint" />
            <mxPoint x="-480" y="880" as="targetPoint" />
          </mxGeometry>
        </mxCell>
        <mxCell id="9zewsrHCKkYJ4nH5Iu_M-40" value="Mass1[i]" style="shape=parallelogram;perimeter=parallelogramPerimeter;whiteSpace=wrap;html=1;fixedSize=1;fontFamily=Times New Roman;fontColor=#000000;" vertex="1" parent="1">
          <mxGeometry x="-690" y="920" width="120" height="20" as="geometry" />
        </mxCell>
        <mxCell id="9zewsrHCKkYJ4nH5Iu_M-41" value="" style="endArrow=classic;html=1;rounded=0;fontFamily=Times New Roman;fontColor=#000000;exitX=0.5;exitY=1;exitDx=0;exitDy=0;entryX=0.5;entryY=0;entryDx=0;entryDy=0;" edge="1" parent="1" source="9zewsrHCKkYJ4nH5Iu_M-38" target="9zewsrHCKkYJ4nH5Iu_M-40">
          <mxGeometry width="50" height="50" relative="1" as="geometry">
            <mxPoint x="-530" y="930" as="sourcePoint" />
            <mxPoint x="-480" y="880" as="targetPoint" />
          </mxGeometry>
        </mxCell>
        <mxCell id="9zewsrHCKkYJ4nH5Iu_M-42" value="Mass1[i] = 0" style="rhombus;whiteSpace=wrap;html=1;fontFamily=Times New Roman;fontColor=#000000;" vertex="1" parent="1">
          <mxGeometry x="-720" y="960" width="180" height="50" as="geometry" />
        </mxCell>
        <mxCell id="9zewsrHCKkYJ4nH5Iu_M-43" value="" style="endArrow=classic;html=1;rounded=0;fontFamily=Times New Roman;fontColor=#000000;exitX=0.5;exitY=1;exitDx=0;exitDy=0;entryX=0.5;entryY=0;entryDx=0;entryDy=0;" edge="1" parent="1" source="9zewsrHCKkYJ4nH5Iu_M-40" target="9zewsrHCKkYJ4nH5Iu_M-42">
          <mxGeometry width="50" height="50" relative="1" as="geometry">
            <mxPoint x="-520" y="900" as="sourcePoint" />
            <mxPoint x="-470" y="850" as="targetPoint" />
          </mxGeometry>
        </mxCell>
        <mxCell id="9zewsrHCKkYJ4nH5Iu_M-44" value="+" style="text;html=1;resizable=0;autosize=1;align=center;verticalAlign=middle;points=[];fillColor=none;strokeColor=none;rounded=0;fontFamily=Times New Roman;fontColor=#000000;" vertex="1" parent="1">
          <mxGeometry x="-560" y="960" width="20" height="20" as="geometry" />
        </mxCell>
        <mxCell id="9zewsrHCKkYJ4nH5Iu_M-45" value="-" style="text;html=1;resizable=0;autosize=1;align=center;verticalAlign=middle;points=[];fillColor=none;strokeColor=none;rounded=0;fontFamily=Times New Roman;fontColor=#000000;" vertex="1" parent="1">
          <mxGeometry x="-725" y="380" width="20" height="20" as="geometry" />
        </mxCell>
        <mxCell id="9zewsrHCKkYJ4nH5Iu_M-46" value="count ++" style="rounded=0;whiteSpace=wrap;html=1;fontFamily=Times New Roman;fontColor=#000000;" vertex="1" parent="1">
          <mxGeometry x="-575" y="1030" width="120" height="40" as="geometry" />
        </mxCell>
        <mxCell id="9zewsrHCKkYJ4nH5Iu_M-47" value="" style="endArrow=classic;html=1;rounded=0;fontFamily=Times New Roman;fontColor=#000000;exitX=1;exitY=0.5;exitDx=0;exitDy=0;entryX=0.5;entryY=0;entryDx=0;entryDy=0;" edge="1" parent="1" source="9zewsrHCKkYJ4nH5Iu_M-42" target="9zewsrHCKkYJ4nH5Iu_M-46">
          <mxGeometry width="50" height="50" relative="1" as="geometry">
            <mxPoint x="-570" y="980" as="sourcePoint" />
            <mxPoint x="-520" y="930" as="targetPoint" />
            <Array as="points">
              <mxPoint x="-515" y="985" />
            </Array>
          </mxGeometry>
        </mxCell>
        <mxCell id="9zewsrHCKkYJ4nH5Iu_M-48" value="" style="endArrow=classic;html=1;rounded=0;fontFamily=Times New Roman;fontColor=#000000;exitX=0;exitY=0.5;exitDx=0;exitDy=0;entryX=0;entryY=0.5;entryDx=0;entryDy=0;" edge="1" parent="1" target="9zewsrHCKkYJ4nH5Iu_M-36">
          <mxGeometry width="50" height="50" relative="1" as="geometry">
            <mxPoint x="-720" y="985" as="sourcePoint" />
            <mxPoint x="-690" y="860" as="targetPoint" />
            <Array as="points">
              <mxPoint x="-790" y="985" />
              <mxPoint x="-790" y="830" />
            </Array>
          </mxGeometry>
        </mxCell>
        <mxCell id="9zewsrHCKkYJ4nH5Iu_M-49" value="" style="endArrow=classic;html=1;rounded=0;fontFamily=Times New Roman;fontColor=#000000;exitX=0.5;exitY=1;exitDx=0;exitDy=0;" edge="1" parent="1">
          <mxGeometry width="50" height="50" relative="1" as="geometry">
            <mxPoint x="-510" y="1070" as="sourcePoint" />
            <mxPoint x="-790" y="990" as="targetPoint" />
            <Array as="points">
              <mxPoint x="-510" y="1110" />
              <mxPoint x="-790" y="1110" />
            </Array>
          </mxGeometry>
        </mxCell>
        <mxCell id="9zewsrHCKkYJ4nH5Iu_M-50" value="" style="endArrow=classic;html=1;rounded=0;fontFamily=Times New Roman;fontColor=#000000;exitX=1;exitY=0.5;exitDx=0;exitDy=0;" edge="1" parent="1" source="9zewsrHCKkYJ4nH5Iu_M-36" target="9zewsrHCKkYJ4nH5Iu_M-51">
          <mxGeometry width="50" height="50" relative="1" as="geometry">
            <mxPoint x="-500" y="980" as="sourcePoint" />
            <mxPoint x="-270" y="860" as="targetPoint" />
            <Array as="points">
              <mxPoint x="-270" y="830" />
            </Array>
          </mxGeometry>
        </mxCell>
        <mxCell id="9zewsrHCKkYJ4nH5Iu_M-51" value="int[] Mass3 = new int[count]" style="rounded=0;whiteSpace=wrap;fontFamily=Times New Roman;fontColor=#000000;" vertex="1" parent="1">
          <mxGeometry x="-350" y="860" width="160" height="30" as="geometry" />
        </mxCell>
        <mxCell id="9zewsrHCKkYJ4nH5Iu_M-52" value="NewArr(Mass3)" style="rounded=0;whiteSpace=wrap;fontFamily=Times New Roman;fillColor=#d5e8d4;strokeColor=#82b366;" vertex="1" parent="1">
          <mxGeometry x="-330" y="910" width="120" height="30" as="geometry" />
        </mxCell>
        <mxCell id="9zewsrHCKkYJ4nH5Iu_M-53" value="" style="endArrow=classic;html=1;rounded=0;fontFamily=Times New Roman;fontColor=#000000;exitX=0.5;exitY=1;exitDx=0;exitDy=0;entryX=0.5;entryY=0;entryDx=0;entryDy=0;" edge="1" parent="1" source="9zewsrHCKkYJ4nH5Iu_M-51" target="9zewsrHCKkYJ4nH5Iu_M-52">
          <mxGeometry width="50" height="50" relative="1" as="geometry">
            <mxPoint x="-500" y="940" as="sourcePoint" />
            <mxPoint x="-450" y="890" as="targetPoint" />
          </mxGeometry>
        </mxCell>
        <mxCell id="9zewsrHCKkYJ4nH5Iu_M-54" value="Конец" style="ellipse;whiteSpace=wrap;html=1;fontFamily=Times New Roman;fontColor=#000000;" vertex="1" parent="1">
          <mxGeometry x="-330" y="960" width="120" height="30" as="geometry" />
        </mxCell>
        <mxCell id="9zewsrHCKkYJ4nH5Iu_M-55" value="" style="endArrow=classic;html=1;rounded=0;fontFamily=Times New Roman;fontColor=#000000;exitX=0.5;exitY=1;exitDx=0;exitDy=0;entryX=0.5;entryY=0;entryDx=0;entryDy=0;" edge="1" parent="1" source="9zewsrHCKkYJ4nH5Iu_M-52" target="9zewsrHCKkYJ4nH5Iu_M-54">
          <mxGeometry width="50" height="50" relative="1" as="geometry">
            <mxPoint x="-500" y="1050" as="sourcePoint" />
            <mxPoint x="-450" y="1000" as="targetPoint" />
          </mxGeometry>
        </mxCell>
        <mxCell id="9zewsrHCKkYJ4nH5Iu_M-56" value="NewArr" style="rounded=0;whiteSpace=wrap;fontFamily=Times New Roman;fillColor=#d5e8d4;strokeColor=#82b366;" vertex="1" parent="1">
          <mxGeometry x="-130" y="20" width="120" height="30" as="geometry" />
        </mxCell>
        <mxCell id="9zewsrHCKkYJ4nH5Iu_M-57" value="Начало" style="ellipse;whiteSpace=wrap;html=1;fontFamily=Times New Roman;fontColor=#000000;" vertex="1" parent="1">
          <mxGeometry x="-130" y="50" width="120" height="30" as="geometry" />
        </mxCell>
        <mxCell id="9zewsrHCKkYJ4nH5Iu_M-58" value="Полученный массив из чётных элементов:" style="shape=parallelogram;perimeter=parallelogramPerimeter;whiteSpace=wrap;fixedSize=1;fontFamily=Times New Roman;fontColor=#000000;" vertex="1" parent="1">
          <mxGeometry x="-190" y="100" width="240" height="35" as="geometry" />
        </mxCell>
        <mxCell id="9zewsrHCKkYJ4nH5Iu_M-59" value="" style="endArrow=classic;html=1;rounded=0;fontFamily=Times New Roman;fontColor=#000000;exitX=0.5;exitY=1;exitDx=0;exitDy=0;entryX=0.5;entryY=0;entryDx=0;entryDy=0;" edge="1" parent="1" source="9zewsrHCKkYJ4nH5Iu_M-57" target="9zewsrHCKkYJ4nH5Iu_M-58">
          <mxGeometry width="50" height="50" relative="1" as="geometry">
            <mxPoint x="-270" y="180" as="sourcePoint" />
            <mxPoint x="-220" y="130" as="targetPoint" />
          </mxGeometry>
        </mxCell>
        <mxCell id="9zewsrHCKkYJ4nH5Iu_M-60" value="i = 1 to a" style="shape=hexagon;perimeter=hexagonPerimeter2;whiteSpace=wrap;html=1;fixedSize=1;fontFamily=Times New Roman;fontColor=#000000;" vertex="1" parent="1">
          <mxGeometry x="-130" y="210" width="120" height="40" as="geometry" />
        </mxCell>
        <mxCell id="9zewsrHCKkYJ4nH5Iu_M-61" value="" style="endArrow=classic;html=1;rounded=0;fontFamily=Times New Roman;fontColor=#000000;exitX=0.5;exitY=1;exitDx=0;exitDy=0;" edge="1" parent="1" source="9zewsrHCKkYJ4nH5Iu_M-58" target="9zewsrHCKkYJ4nH5Iu_M-67">
          <mxGeometry width="50" height="50" relative="1" as="geometry">
            <mxPoint x="-270" y="180" as="sourcePoint" />
            <mxPoint x="-70" y="160" as="targetPoint" />
          </mxGeometry>
        </mxCell>
        <mxCell id="9zewsrHCKkYJ4nH5Iu_M-63" value="Mass1[i] % 2 = 0" style="rhombus;whiteSpace=wrap;html=1;fontFamily=Times New Roman;fontColor=#000000;" vertex="1" parent="1">
          <mxGeometry x="-160" y="270" width="180" height="50" as="geometry" />
        </mxCell>
        <mxCell id="9zewsrHCKkYJ4nH5Iu_M-64" value="" style="endArrow=classic;html=1;rounded=0;fontFamily=Times New Roman;fontColor=#000000;exitX=0.5;exitY=1;exitDx=0;exitDy=0;entryX=0.5;entryY=0;entryDx=0;entryDy=0;" edge="1" parent="1" source="9zewsrHCKkYJ4nH5Iu_M-60" target="9zewsrHCKkYJ4nH5Iu_M-63">
          <mxGeometry width="50" height="50" relative="1" as="geometry">
            <mxPoint x="-420" y="350" as="sourcePoint" />
            <mxPoint x="-370" y="300" as="targetPoint" />
          </mxGeometry>
        </mxCell>
        <mxCell id="9zewsrHCKkYJ4nH5Iu_M-65" value="+" style="text;html=1;resizable=0;autosize=1;align=center;verticalAlign=middle;points=[];fillColor=none;strokeColor=none;rounded=0;fontFamily=Times New Roman;fontColor=#000000;" vertex="1" parent="1">
          <mxGeometry y="270" width="20" height="20" as="geometry" />
        </mxCell>
        <mxCell id="9zewsrHCKkYJ4nH5Iu_M-66" value="-" style="text;html=1;resizable=0;autosize=1;align=center;verticalAlign=middle;points=[];fillColor=none;strokeColor=none;rounded=0;fontFamily=Times New Roman;fontColor=#000000;" vertex="1" parent="1">
          <mxGeometry x="-160" y="270" width="20" height="20" as="geometry" />
        </mxCell>
        <mxCell id="9zewsrHCKkYJ4nH5Iu_M-67" value="j = 0" style="rounded=0;whiteSpace=wrap;html=1;fontFamily=Times New Roman;fontColor=#000000;" vertex="1" parent="1">
          <mxGeometry x="-130" y="160" width="120" height="30" as="geometry" />
        </mxCell>
        <mxCell id="9zewsrHCKkYJ4nH5Iu_M-68" value="" style="endArrow=classic;html=1;rounded=0;fontFamily=Times New Roman;fontColor=#000000;exitX=0.5;exitY=1;exitDx=0;exitDy=0;entryX=0.5;entryY=0;entryDx=0;entryDy=0;" edge="1" parent="1" source="9zewsrHCKkYJ4nH5Iu_M-67" target="9zewsrHCKkYJ4nH5Iu_M-60">
          <mxGeometry width="50" height="50" relative="1" as="geometry">
            <mxPoint x="-20" y="300" as="sourcePoint" />
            <mxPoint x="30" y="250" as="targetPoint" />
          </mxGeometry>
        </mxCell>
        <mxCell id="9zewsrHCKkYJ4nH5Iu_M-69" value="arr[j] = Mass1[i]" style="rounded=0;whiteSpace=wrap;html=1;fontFamily=Times New Roman;fontColor=#000000;" vertex="1" parent="1">
          <mxGeometry x="30" y="320" width="120" height="30" as="geometry" />
        </mxCell>
        <mxCell id="9zewsrHCKkYJ4nH5Iu_M-70" value="" style="endArrow=classic;html=1;rounded=0;fontFamily=Times New Roman;fontColor=#000000;exitX=1;exitY=0.5;exitDx=0;exitDy=0;entryX=0.5;entryY=0;entryDx=0;entryDy=0;" edge="1" parent="1" source="9zewsrHCKkYJ4nH5Iu_M-63" target="9zewsrHCKkYJ4nH5Iu_M-69">
          <mxGeometry width="50" height="50" relative="1" as="geometry">
            <mxPoint x="-20" y="300" as="sourcePoint" />
            <mxPoint x="30" y="250" as="targetPoint" />
            <Array as="points">
              <mxPoint x="90" y="295" />
            </Array>
          </mxGeometry>
        </mxCell>
        <mxCell id="9zewsrHCKkYJ4nH5Iu_M-71" value="arr[j]" style="shape=parallelogram;perimeter=parallelogramPerimeter;whiteSpace=wrap;html=1;fixedSize=1;fontFamily=Times New Roman;fontColor=#000000;" vertex="1" parent="1">
          <mxGeometry x="30" y="370" width="120" height="30" as="geometry" />
        </mxCell>
        <mxCell id="9zewsrHCKkYJ4nH5Iu_M-72" value="" style="endArrow=classic;html=1;rounded=0;fontFamily=Times New Roman;fontColor=#000000;exitX=0.5;exitY=1;exitDx=0;exitDy=0;entryX=0.5;entryY=0;entryDx=0;entryDy=0;" edge="1" parent="1" source="9zewsrHCKkYJ4nH5Iu_M-69" target="9zewsrHCKkYJ4nH5Iu_M-71">
          <mxGeometry width="50" height="50" relative="1" as="geometry">
            <mxPoint x="-20" y="300" as="sourcePoint" />
            <mxPoint x="30" y="250" as="targetPoint" />
          </mxGeometry>
        </mxCell>
        <mxCell id="9zewsrHCKkYJ4nH5Iu_M-73" value="j++" style="rounded=0;whiteSpace=wrap;html=1;fontFamily=Times New Roman;fontColor=#000000;" vertex="1" parent="1">
          <mxGeometry x="30" y="420" width="120" height="30" as="geometry" />
        </mxCell>
        <mxCell id="9zewsrHCKkYJ4nH5Iu_M-74" value="" style="endArrow=classic;html=1;rounded=0;fontFamily=Times New Roman;fontColor=#000000;exitX=0.5;exitY=1;exitDx=0;exitDy=0;entryX=0.5;entryY=0;entryDx=0;entryDy=0;" edge="1" parent="1" source="9zewsrHCKkYJ4nH5Iu_M-71" target="9zewsrHCKkYJ4nH5Iu_M-73">
          <mxGeometry width="50" height="50" relative="1" as="geometry">
            <mxPoint x="110" y="490" as="sourcePoint" />
            <mxPoint x="160" y="440" as="targetPoint" />
          </mxGeometry>
        </mxCell>
        <mxCell id="9zewsrHCKkYJ4nH5Iu_M-75" value="" style="endArrow=classic;html=1;rounded=0;fontFamily=Times New Roman;fontColor=#000000;exitX=0.5;exitY=1;exitDx=0;exitDy=0;" edge="1" parent="1" source="9zewsrHCKkYJ4nH5Iu_M-73">
          <mxGeometry width="50" height="50" relative="1" as="geometry">
            <mxPoint x="110" y="410" as="sourcePoint" />
            <mxPoint x="-190" y="300" as="targetPoint" />
            <Array as="points">
              <mxPoint x="90" y="480" />
              <mxPoint x="-190" y="480" />
            </Array>
          </mxGeometry>
        </mxCell>
        <mxCell id="9zewsrHCKkYJ4nH5Iu_M-76" value="" style="endArrow=classic;html=1;rounded=0;fontFamily=Times New Roman;fontColor=#000000;exitX=0;exitY=0.5;exitDx=0;exitDy=0;entryX=0;entryY=0.5;entryDx=0;entryDy=0;" edge="1" parent="1" source="9zewsrHCKkYJ4nH5Iu_M-63" target="9zewsrHCKkYJ4nH5Iu_M-60">
          <mxGeometry width="50" height="50" relative="1" as="geometry">
            <mxPoint x="110" y="410" as="sourcePoint" />
            <mxPoint x="160" y="360" as="targetPoint" />
            <Array as="points">
              <mxPoint x="-190" y="295" />
              <mxPoint x="-190" y="230" />
            </Array>
          </mxGeometry>
        </mxCell>
        <mxCell id="9zewsrHCKkYJ4nH5Iu_M-77" value="" style="endArrow=classic;html=1;rounded=0;fontFamily=Times New Roman;fontColor=#000000;exitX=1;exitY=0.5;exitDx=0;exitDy=0;entryX=0.5;entryY=0;entryDx=0;entryDy=0;" edge="1" parent="1" source="9zewsrHCKkYJ4nH5Iu_M-60" target="9zewsrHCKkYJ4nH5Iu_M-78">
          <mxGeometry width="50" height="50" relative="1" as="geometry">
            <mxPoint x="110" y="410" as="sourcePoint" />
            <mxPoint x="360" y="280" as="targetPoint" />
            <Array as="points">
              <mxPoint x="280" y="230" />
            </Array>
          </mxGeometry>
        </mxCell>
        <mxCell id="9zewsrHCKkYJ4nH5Iu_M-78" value="arr.length = 0" style="rhombus;whiteSpace=wrap;html=1;fontFamily=Times New Roman;fontColor=#000000;" vertex="1" parent="1">
          <mxGeometry x="240" y="280" width="80" height="50" as="geometry" />
        </mxCell>
        <mxCell id="9zewsrHCKkYJ4nH5Iu_M-80" value="+" style="text;html=1;resizable=0;autosize=1;align=center;verticalAlign=middle;points=[];fillColor=none;strokeColor=none;rounded=0;fontFamily=Times New Roman;fontColor=#000000;" vertex="1" parent="1">
          <mxGeometry x="310" y="285" width="20" height="20" as="geometry" />
        </mxCell>
        <mxCell id="9zewsrHCKkYJ4nH5Iu_M-81" value="-" style="text;html=1;resizable=0;autosize=1;align=center;verticalAlign=middle;points=[];fillColor=none;strokeColor=none;rounded=0;fontFamily=Times New Roman;fontColor=#000000;" vertex="1" parent="1">
          <mxGeometry x="230" y="285" width="20" height="20" as="geometry" />
        </mxCell>
        <mxCell id="9zewsrHCKkYJ4nH5Iu_M-82" value="В исходном массиве нет чётных элементов" style="shape=parallelogram;perimeter=parallelogramPerimeter;whiteSpace=wrap;fixedSize=1;fontFamily=Times New Roman;fontColor=#000000;" vertex="1" parent="1">
          <mxGeometry x="290" y="355" width="130" height="60" as="geometry" />
        </mxCell>
        <mxCell id="9zewsrHCKkYJ4nH5Iu_M-83" value="" style="endArrow=classic;html=1;rounded=0;fontFamily=Times New Roman;fontColor=#000000;entryX=0.5;entryY=0;entryDx=0;entryDy=0;exitX=0.5;exitY=1.05;exitDx=0;exitDy=0;exitPerimeter=0;" edge="1" parent="1" source="9zewsrHCKkYJ4nH5Iu_M-80" target="9zewsrHCKkYJ4nH5Iu_M-82">
          <mxGeometry width="50" height="50" relative="1" as="geometry">
            <mxPoint x="230" y="390" as="sourcePoint" />
            <mxPoint x="280" y="340" as="targetPoint" />
            <Array as="points">
              <mxPoint x="355" y="306" />
            </Array>
          </mxGeometry>
        </mxCell>
        <mxCell id="9zewsrHCKkYJ4nH5Iu_M-85" value="" style="endArrow=none;html=1;rounded=0;fontFamily=Times New Roman;fontColor=#000000;entryX=0.3;entryY=1.1;entryDx=0;entryDy=0;entryPerimeter=0;exitX=0.5;exitY=1;exitDx=0;exitDy=0;" edge="1" parent="1" source="9zewsrHCKkYJ4nH5Iu_M-82" target="9zewsrHCKkYJ4nH5Iu_M-81">
          <mxGeometry width="50" height="50" relative="1" as="geometry">
            <mxPoint x="230" y="470" as="sourcePoint" />
            <mxPoint x="160" y="340" as="targetPoint" />
            <Array as="points">
              <mxPoint x="355" y="470" />
              <mxPoint x="190" y="470" />
              <mxPoint x="190" y="307" />
            </Array>
          </mxGeometry>
        </mxCell>
        <mxCell id="9zewsrHCKkYJ4nH5Iu_M-86" value="" style="endArrow=classic;html=1;rounded=0;fontFamily=Times New Roman;fontColor=#000000;" edge="1" parent="1" target="9zewsrHCKkYJ4nH5Iu_M-87">
          <mxGeometry width="50" height="50" relative="1" as="geometry">
            <mxPoint x="280" y="470" as="sourcePoint" />
            <mxPoint x="280" y="510" as="targetPoint" />
          </mxGeometry>
        </mxCell>
        <mxCell id="9zewsrHCKkYJ4nH5Iu_M-87" value="Конец" style="ellipse;whiteSpace=wrap;html=1;fontFamily=Times New Roman;fontColor=#000000;" vertex="1" parent="1">
          <mxGeometry x="220" y="505" width="120" height="35" as="geometry" />
        </mxCell>
        <mxCell id="9zewsrHCKkYJ4nH5Iu_M-88" value="Clear (Array)" style="rounded=0;whiteSpace=wrap;fontFamily=Times New Roman;fillColor=#e1d5e7;strokeColor=#9673a6;" vertex="1" parent="1">
          <mxGeometry x="140" y="600" width="120" height="40" as="geometry" />
        </mxCell>
        <mxCell id="9zewsrHCKkYJ4nH5Iu_M-89" value="Начало" style="ellipse;whiteSpace=wrap;html=1;fontFamily=Times New Roman;fontColor=#000000;" vertex="1" parent="1">
          <mxGeometry x="140" y="640" width="120" height="30" as="geometry" />
        </mxCell>
        <mxCell id="9zewsrHCKkYJ4nH5Iu_M-90" value="n = 1 to arr.length" style="shape=hexagon;perimeter=hexagonPerimeter2;whiteSpace=wrap;html=1;fixedSize=1;fontFamily=Times New Roman;fontColor=#000000;" vertex="1" parent="1">
          <mxGeometry x="140" y="690" width="120" height="50" as="geometry" />
        </mxCell>
        <mxCell id="9zewsrHCKkYJ4nH5Iu_M-91" value="" style="endArrow=classic;html=1;rounded=0;fontFamily=Times New Roman;fontColor=#000000;exitX=0.5;exitY=1;exitDx=0;exitDy=0;" edge="1" parent="1" source="9zewsrHCKkYJ4nH5Iu_M-90">
          <mxGeometry width="50" height="50" relative="1" as="geometry">
            <mxPoint x="170" y="740" as="sourcePoint" />
            <mxPoint x="200" y="770" as="targetPoint" />
          </mxGeometry>
        </mxCell>
        <mxCell id="9zewsrHCKkYJ4nH5Iu_M-92" value="Arr[n] = 0" style="rounded=0;whiteSpace=wrap;html=1;fontFamily=Times New Roman;fontColor=#000000;" vertex="1" parent="1">
          <mxGeometry x="140" y="770" width="120" height="40" as="geometry" />
        </mxCell>
        <mxCell id="9zewsrHCKkYJ4nH5Iu_M-93" value="" style="endArrow=classic;html=1;rounded=0;fontFamily=Times New Roman;fontColor=#000000;exitX=0.5;exitY=1;exitDx=0;exitDy=0;entryX=0;entryY=0.5;entryDx=0;entryDy=0;" edge="1" parent="1" source="9zewsrHCKkYJ4nH5Iu_M-92" target="9zewsrHCKkYJ4nH5Iu_M-90">
          <mxGeometry width="50" height="50" relative="1" as="geometry">
            <mxPoint x="170" y="740" as="sourcePoint" />
            <mxPoint x="220" y="690" as="targetPoint" />
            <Array as="points">
              <mxPoint x="200" y="860" />
              <mxPoint x="110" y="860" />
              <mxPoint x="110" y="715" />
            </Array>
          </mxGeometry>
        </mxCell>
        <mxCell id="9zewsrHCKkYJ4nH5Iu_M-94" value="" style="endArrow=classic;html=1;rounded=0;fontFamily=Times New Roman;fontColor=#000000;exitX=0.5;exitY=1;exitDx=0;exitDy=0;entryX=0.5;entryY=0;entryDx=0;entryDy=0;" edge="1" parent="1" source="9zewsrHCKkYJ4nH5Iu_M-89" target="9zewsrHCKkYJ4nH5Iu_M-90">
          <mxGeometry width="50" height="50" relative="1" as="geometry">
            <mxPoint x="170" y="740" as="sourcePoint" />
            <mxPoint x="220" y="690" as="targetPoint" />
          </mxGeometry>
        </mxCell>
        <mxCell id="9zewsrHCKkYJ4nH5Iu_M-95" value="" style="endArrow=classic;html=1;rounded=0;fontFamily=Times New Roman;fontColor=#000000;exitX=1;exitY=0.5;exitDx=0;exitDy=0;" edge="1" parent="1" source="9zewsrHCKkYJ4nH5Iu_M-90">
          <mxGeometry width="50" height="50" relative="1" as="geometry">
            <mxPoint x="170" y="740" as="sourcePoint" />
            <mxPoint x="200" y="900" as="targetPoint" />
            <Array as="points">
              <mxPoint x="310" y="715" />
              <mxPoint x="310" y="870" />
              <mxPoint x="200" y="870" />
            </Array>
          </mxGeometry>
        </mxCell>
        <mxCell id="9zewsrHCKkYJ4nH5Iu_M-96" value="Конец" style="ellipse;whiteSpace=wrap;html=1;fontFamily=Times New Roman;fontColor=#000000;" vertex="1" parent="1">
          <mxGeometry x="140" y="900" width="120" height="40" as="geometry" />
        </mxCell>
      </root>
    </mxGraphModel>
  </diagram>
</mxfile>
